# xmcd
#
# Track frame offsets:
#	150
#	21890
#	39277
#	59812
#	79145
#	101517
#	119585
#	137430
#	155480
#	174510
#	192505
#
# Disc length: 2879 seconds
#
# Revision: 10
# Processed by: cddbd v1.5.2PL0 Copyright (c) Steve Scherf et al.
# Submitted via: EasyCDDAExtractor 15.3.0.1
#
DISCID=930b3d0b
DTITLE=Ricardo Montaner - Con La London Metropolitan Orchestra
DYEAR=1999
DGENRE=Latin
TTITLE0=Tan Enamorados
TTITLE1=Ojos Negros
TTITLE2=El Poder De Tu Amor
TTITLE3=La Cima Del Cielo
TTITLE4=Me Va A Extrañar
TTITLE5=En El Ultimo Lugar Del Mundo
TTITLE6=Sera
TTITLE7=Solo Con Un Beso
TTITLE8=Al Final Del Arco Iris
TTITLE9=Castillo Azul
TTITLE10=Dejame Llorar
EXTD=YEAR: 2000  ID3G:  17
EXTT0=
EXTT1=
EXTT2=
EXTT3=
EXTT4=
EXTT5=
EXTT6=
EXTT7=
EXTT8=
EXTT9=
EXTT10=
PLAYORDER=
